<?xml version="1.0" encoding="utf-8"?><!-- Uploaded to: SVG Repo, www.svgrepo.com, Generator: SVG Repo Mixer Tools -->
<svg fill="#000000" width="800px" height="800px" viewBox="0 0 24 24" id="watch-circle-5-o-clock" data-name="Flat Color" xmlns="http://www.w3.org/2000/svg" class="icon flat-color"><path id="secondary" d="M17,18.34V21a1,1,0,0,1-1,1H8a1,1,0,0,1-1-1V18.34a1,1,0,0,1,1.53-.85,6.58,6.58,0,0,0,6.94,0,1,1,0,0,1,1,0A1,1,0,0,1,17,18.34ZM16,2H8A1,1,0,0,0,7,3V5.66a1,1,0,0,0,1.53.85,6.58,6.58,0,0,1,6.94,0,1,1,0,0,0,.53.15,1,1,0,0,0,1-1V3A1,1,0,0,0,16,2Z" style="fill: rgb(44, 169, 188);"></path><circle id="primary" cx="12" cy="12" r="8.5" style="fill: rgb(0, 0, 0);"></circle><path id="secondary-2" data-name="secondary" d="M14.14,13.41,13,12.12V9a1,1,0,0,0-2,0v3.5a1,1,0,0,0,.25.67l1.4,1.57a1,1,0,0,0,.75.33,1,1,0,0,0,.74-1.66Z" style="fill: rgb(44, 169, 188);"></path></svg>